<?xml version="1.0" encoding="UTF-8" standalone="no"?>
<svg
   version="1.1"
   viewBox="800 1100 4606 1642.189"
   style="clip-rule:evenodd;fill-rule:evenodd;image-rendering:optimizeQuality;shape-rendering:geometricPrecision;text-rendering:geometricPrecision"
   id="svg193"
   sodipodi:docname="logo_cream_full.svg"
   inkscape:version="1.1.2 (0a00cf5339, 2022-02-04)"
   width="4606"
   height="1642.189"
   xmlns:inkscape="http://www.inkscape.org/namespaces/inkscape"
   xmlns:sodipodi="http://sodipodi.sourceforge.net/DTD/sodipodi-0.dtd"
   xmlns="http://www.w3.org/2000/svg"
   xmlns:svg="http://www.w3.org/2000/svg">
  <defs
     id="defs197" />
  <sodipodi:namedview
     id="namedview195"
     pagecolor="#ffffff"
     bordercolor="#666666"
     borderopacity="1.0"
     inkscape:pageshadow="2"
     inkscape:pageopacity="0.0"
     inkscape:pagecheckerboard="0"
     showgrid="true"
     inkscape:object-paths="true"
     inkscape:zoom="0.125"
     inkscape:cx="2812"
     inkscape:cy="1244"
     inkscape:window-width="1920"
     inkscape:window-height="1048"
     inkscape:window-x="1280"
     inkscape:window-y="-5"
     inkscape:window-maximized="1"
     inkscape:current-layer="svg193"
     fit-margin-top="0"
     fit-margin-left="0"
     fit-margin-right="0"
     fit-margin-bottom="0">
    <inkscape:grid
       type="xygrid"
       id="grid85562"
       originx="-19"
       originy="-27.578128" />
  </sodipodi:namedview>
  <g
     id="g135"
     transform="translate(-19,-27.578125)"
     style="fill:#f8d8c1;fill-opacity:1">
    <path
       style="opacity:1;fill:#f8d8c1;fill-opacity:1"
       fill="#04233b"
       d="m 1585.5,1136 417.5,239.5 -107.5,72.5 -323,-187 c -11.9391,-6.9121 -28.6836,-6.237 -41,0 -189.6058,96.0169 -383.0809,221.9887 -545,316 -26.90687,15.6223 -46.87156,53.3453 -46.80054,84.3259 l 1.37598,600.1731 c 0.0532,23.2234 8.37842,35.4876 27.42456,48.501 l 110.5,75.5 c -20.46,28.07 -41.29,55.9 -62.5,83.5 -2.33,0.67 -4.67,0.67 -7,0 -43.727,-24.71 -87.42563,-49.6571 -129,-78 -34.61249,-23.5967 -61.5,-56.8478 -61.5,-98.5 v -695 c 0,-42.3655 28.55686,-77.1181 65.5,-98.5 l 622,-360 c 26.3501,-15.2509 59.5241,-14.1724 79,-3 z"
       id="path133"
       sodipodi:nodetypes="sccsssssscccssssss" />
  </g>
  <path
     fill="#e9a033"
     d="m 2281.0217,1189.298 c -168.1487,110.39 -318.862,216.5768 -462.5,316.4974 73.3662,16.3301 111.5263,53.6158 144.1318,108.7681 z"
     id="path137"
     sodipodi:nodetypes="cccc"
     style="stroke-width:0.929542" />
  <g
     id="g143"
     transform="translate(-19,-27.578125)"
     style="fill:#f8d8c1;fill-opacity:1">
    <path
       style="opacity:1;fill:#f8d8c1;fill-opacity:1"
       fill="#04233b"
       d="M 2160.1343,1495.6684 C 2287.2818,1562.6669 2299.6831,1583.7586 2300,1700 l 0.092,563.9707 c 0.016,96.5441 -37.5023,128.5739 -65.5922,146.9901 -139.1103,91.2032 -292.916,150.1063 -417,222.0392 -70.2636,38.7418 -137.3817,82.3414 -201.8093,115.911 -36.7564,19.1517 -60.6255,29.5635 -91.2407,11.4903 l -355.0789,-209.6154 94.3774,-69.4159 c 0,0 178.501,101.7533 267.7515,152.63 16.4196,9.3599 26.8122,10.0956 46,0 l 576.8005,-320.0675 c 28.9216,-17.7654 25.6973,-51.9385 25.6973,-59.9961 L 2180,1740 c -0.7905,-118.8562 -8.3607,-106.175 -89.8147,-157.8615 z"
       id="path141"
       sodipodi:nodetypes="ccsscssccsccsccc" />
  </g>
  <g
     id="g151"
     transform="translate(-19,-26.583928)"
     style="fill:#f8d8c1;fill-opacity:1">
    <path
       style="opacity:1;fill:#f8d8c1;fill-opacity:1"
       fill="#04233b"
       d="m 3756.5,1685.1373 c 15.34,-0.17 30.67,0 46,0.5 64.64,7.64 101.14,37.1627 109.5,101.8627 v 321 c -2.9864,60.2312 -76.3129,102.393 -134.7738,103.4589 -56.8085,0.076 -115.6897,-26.0645 -130.2262,-100.4589 v -325 c 8.97,-64.14 45.47,-93.5027 109.5,-101.3627 z m 23.9692,75.3627 c 9.5308,0 44.5944,7.9691 45.5308,35.5488 3.3256,97.9458 1.8922,210.1056 -0.4362,308.0802 -0.5134,21.6031 -24.9432,35.089 -43.8645,35.071 -20.0175,-0.019 -48.0224,-16.8812 -48.0633,-36.6837 L 3733,1794.5 c -0.057,-27.582 36.9694,-34 47.4692,-34 z"
       id="path149"
       sodipodi:nodetypes="ccccccccsssssss" />
  </g>
  <g
     id="g155"
     transform="translate(-19,-26.584797)"
     style="fill:#f8d8c1;fill-opacity:1">
    <path
       style="opacity:1;fill:#f8d8c1;fill-opacity:1"
       fill="#04233b"
       d="m 4433.072,1688.5989 c 55.6187,8.7789 99.4278,56.3203 98.928,90.9011 l 0.1685,70.4666 -81.9772,-0.508 -0.1915,-50.4519 c 0.985,-53.38 -88.0066,-47.5459 -89,-8.5067 l -1,309 c 5.7026,53.0424 81.3542,46.6635 87.494,10.1875 l 0.01,-58.6875 84.5,0.5 0.2395,76.7353 c -8.9299,73.3507 -82.5844,88.2363 -150.2557,83.8177 -58.7094,-8.1964 -106.0821,-51.0678 -110.9838,-99.553 -0.67,-106.67 -0.67,-213.33 0,-320 4.9901,-63.2297 47.3773,-97.9547 106.5682,-104.8944 14.798,-2.7089 42.0503,0.011 55.5,0.9933 z"
       id="path153"
       sodipodi:nodetypes="cccccccccccccccc" />
  </g>
  <g
     id="g163"
     transform="translate(-19,-25.796171)"
     style="fill:#f8d8c1;fill-opacity:1">
    <path
       style="opacity:1;fill:#f8d8c1;fill-opacity:1"
       fill="#04233b"
       d="m 2915.5,1686.5 c 36,-0.17 72,0 108,0.5 l 95,523 -86,-1 -19,-104 c -30,-0.67 -60,-0.67 -90,0 l -18,104 -83.5,0.5 z m 51,152 35,183.5 -67.5,-0.5 z"
       id="path161"
       sodipodi:nodetypes="ccccccccccccc" />
  </g>
  <g
     id="g167"
     transform="translate(-18.646447,-26.079375)"
     style="fill:#f8d8c1;fill-opacity:1">
    <path
       style="opacity:1;fill:#f8d8c1;fill-opacity:1"
       fill="#04233b"
       d="m 3086.5,1686.5 85.5,1 58,191 53.5,-191.5 85,-0.5 -99.5,322 -2.5,201.5 c -26.33,0.67 -52.67,0.67 -79,0 l -3.5,-200.5 z"
       id="path165"
       sodipodi:nodetypes="cccccccccc" />
  </g>
  <g
     id="g171"
     transform="translate(-19,-27.578125)"
     style="fill:#f8d8c1;fill-opacity:1">
    <path
       style="opacity:1;fill:#f8d8c1;fill-opacity:1"
       fill="#04233b"
       d="m 3403.6192,1687.9299 204.5165,-0.1762 -0.1357,78.2451 -114.8717,0.6498 -1.5871,154.1913 103.9588,-0.3411 0.5,80.2971 -104,0.076 c -0.33,69.9999 -0.67,138.1266 -1,208.1266 -0.9,1.2 -2.07,2.0301 -3.5,2.5 -27,0.67 -54,0.67 -81,0 -0.92,-0.37 -1.75,-0.87 -2.5,-1.5 -0.83,-174.0699 -1.5508,-348.1388 -0.3808,-522.0688 z"
       id="path169"
       sodipodi:nodetypes="ccccccccccccc" />
  </g>
  <g
     id="g175"
     transform="translate(-19,-26.078125)"
     style="fill:#f8d8c1;fill-opacity:1">
    <path
       style="opacity:1;fill:#f8d8c1;fill-opacity:1"
       fill="#04233b"
       d="m 3968.5,1686.5 c 51.33,-0.17 103.17,-0.5 154.5,0 62.04,11.04 95.38,48.37 101,111 0.93,37.02 0.6,74.02 -1,111 -1.44,11.57 -3.77,22.9 -7,34 -9.53,23.86 -25.2,42.53 -47,56 l 65.5,212 -87,-0.5 -67.5,-194.5 h -27 l -1,194.54 -82.5,-0.04 -2.5,-521.5 z m 131,80.5 c 27.3156,2.266 38.5,16.8648 38.5,37.5 v 96 c 0,14.351 -3.5933,31.0886 -20.3647,34.4378 L 4053,1935.5 l 0.6034,-168.5408 z"
       id="path173"
       sodipodi:nodetypes="cccccccccccccccsscccc" />
  </g>
  <g
     id="g179"
     transform="translate(-19,-26.017578)"
     style="fill:#f8d8c1;fill-opacity:1">
    <path
       style="opacity:1;fill:#f8d8c1;fill-opacity:1"
       fill="#04233b"
       d="m 4588.5,1686.5 212.5215,-0.5047 0.4298,81.3102 L 4673,1767.5 v 138.6017 L 4779.5,1907 v 81 l -106.9899,1.0638 0.4899,139.4362 127.8682,1.6466 0.4923,78.6348 L 4588,2208.5 Z"
       id="path177"
       sodipodi:nodetypes="ccccccccccccc" />
  </g>
  <g
     id="g183"
     transform="translate(-19,-25.547421)">
    <path
       style="opacity:1"
       fill="#e9a033"
       d="m 4858.5,1686.5 c 49.33,-0.17 98.67,0 148,0.5 37.7,3.76 68.53,20.26 92.5,49.5 9.66,16.68 15.33,34.68 17,54 l 1.5,284 c 1.58,85.25 -37.4591,134.6995 -125,134.5 -44.33,0.67 -88.67,0.67 -133,0 l -1.5,-1.5 c -0.83,-173.74 -0.67,-347.4 0.5,-521 z m 147.6084,81.2376 C 5023.4023,1770.167 5029.91,1786.4 5032,1803.5 l 1.9235,257.4226 c -0.2316,46.5972 2.1224,67.2507 -35.4235,69.0774 l -57.5,0.5 c -0.67,-121 -0.67,-242 0,-363 z"
       id="path181"
       sodipodi:nodetypes="cccccccccccccccc" />
  </g>
  <g
     id="g187"
     transform="translate(-19,-25.554867)">
    <path
       style="opacity:1"
       fill="#e9a033"
       d="m 5172.5,1686.5 c 46.33,-0.17 92.67,0 139,0.5 61.78,6.45 108.5,20.9767 108.5,70.9767 l 0.9402,110.8706 c -0.8149,38.2504 -34.9402,60.1294 -34.9402,60.1294 l -16,9 c 0,0 55,10 55,75 v 125 c 0,60.0001 -60.5039,68.2267 -108.4997,71.0233 l -144.5,-0.5 c -0.83,-174.07 -0.67,-348.07 0.5,-522 z m 79.1723,80.5048 69.9218,0.1101 c 20.6665,0.033 19.2135,26.3963 19.0577,42.6945 l -0.6515,68.1673 c 0,10 -3e-4,29.7084 -21.2584,29.7865 L 5250,1907.9767 Z M 5320,1987.9767 c 20.4102,0 19.5271,13.8302 20.2385,31.1199 0.5086,12.3591 -0.2385,66.3746 -0.2385,78.8801 0,20 0,30 -20,30 h -70 l 0.014,-140.1817 z"
       id="path185"
       sodipodi:nodetypes="cccccccccccccsscscccscccsc" />
  </g>
  <path
     id="path189"
     d="m 1532.881,2190.6079 -712.54433,539.1071 494.86163,-633.9283 -242.3173,34.8212 237.515,-206.8475 z"
     style="fill:#e9a033;fill-opacity:1"
     sodipodi:nodetypes="cccccc" />
  <path
     id="rect68747"
     style="fill:#e9a033;stroke-width:0.676853"
     d="m 1506,1752.4219 169.6563,0.1709 c 46.6126,0.047 47.031,82.6039 2.5947,82.2206 L 1401,1832.4219 Z"
     sodipodi:nodetypes="csscc" />
  <path
     style="clip-rule:evenodd;fill-rule:evenodd;image-rendering:optimizeQuality;shape-rendering:geometricPrecision;text-rendering:geometricPrecision;fill:#f8d8c1;fill-opacity:1"
     fill="#04233b"
     d="m 2506.5,1660.4538 c 51.33,-0.17 102.67,0 154,0.5 62.04,11.04 95.88,47.87 101.5,110.5 0.93,37.02 0.6,74.02 -1,111 -1.44,11.57 -3.77,22.9 -7,34 -9.53,23.86 -25.2,42.53 -47,56 l 65.5,212 -87,-0.5 -67,-195 -27.5,0.5 -1,194.54 -82.5,-0.04 -2.5,-521.5 z m 131,80.5 c 27.3156,2.266 38.5,16.8648 38.5,37.5 v 96 c 0,14.351 -3.5933,31.0886 -20.3647,34.4378 l -64.6353,0.5622 0.6034,-168.5408 z"
     id="path173-7"
     sodipodi:nodetypes="cccccccccccccccsscccc" />
  <path
     fill="#04233b"
     d="m 1745.2501,1552.9961 c 230,30 295.7499,439.4258 -53.4212,475.4292 l 243.4212,284.5708 h -200 L 1381,1892.4219 l 334.6837,0.1921 c 109.5665,0.063 106.5581,-195.3051 -1.3514,-195.3681 -148.9869,-0.087 -479.0822,-4.2498 -479.0822,-4.2498 L 1114.6245,1553.056 c 215.4979,-0.019 437.6937,-0.042 630.6256,-0.06 z"
     id="path145"
     sodipodi:nodetypes="cccccsscccc"
     style="clip-rule:evenodd;fill:#f8d8c1;fill-opacity:1;fill-rule:evenodd;stroke-width:0.999999;image-rendering:optimizeQuality;shape-rendering:geometricPrecision;text-rendering:geometricPrecision" />
</svg>
